<svg width="701" height="667" version="1.1" xmlns="http://www.w3.org/2000/svg" desc="Created with imagetracer.js version 1.2.6" ><path fill="rgb(147,198,216)" stroke="rgb(147,198,216)" stroke-width="1" opacity="0.9921568627450981" d="M 318.5 115 L 332.5 116 L 333.5 115 L 344.5 115 Q 362.7 118.3 372 130.5 L 382.5 147 Q 394.5 151.5 402 160.5 L 411 175.5 L 413 184.5 L 413 193.5 L 412 198.5 L 413 199.5 L 413 209.5 Q 409.3 229.3 395.5 239 Q 387.7 245.7 376.5 249 L 366.5 251 L 357.5 251 L 349 257.5 L 347 263.5 L 347 399 L 359 399 L 359 423 L 347.5 423 L 347 423.5 L 347 471.5 L 343.5 476 L 341.5 477 L 278 477 L 278 435 L 293 435 Q 293.5 441.8 298.5 445 L 306.5 447 Q 313 445.5 316 440.5 L 317 431.5 L 313.5 426 L 308.5 423 L 293 423 L 293 400.5 L 294.5 399 L 316.5 399 L 317 398.5 L 317 258.5 Q 320.5 239.5 333.5 230 L 348.5 222 L 370.5 219 L 381 210.5 L 383 204.5 L 380 195.5 L 383 188.5 Q 381.9 181.1 376.5 178 L 366.5 173 L 356.5 173 L 354 174 Q 356.3 170.4 355 161.5 Q 352.5 153 346.5 148 L 338.5 145 L 330.5 148 L 322.5 145 Q 315.3 146.8 312 152.5 Q 306 158.5 308 172.5 L 308.5 174 Q 304.7 171.3 296.5 173 Q 286.9 175.4 282 182.5 Q 279.2 185.2 280 191.5 L 283 197.5 Q 279.2 199.7 280 206.5 L 281 209.5 L 288.5 217 Q 293 220.9 301 220 L 301 250.5 Q 301 251.5 296.5 251 L 286.5 249 L 274.5 244 L 258 229.5 Q 252.3 222.2 250 211.5 L 250 182.5 Q 254 163.5 267.5 154 L 282 145.5 Q 286.6 131.6 297.5 124 Q 305.6 117.1 318.5 115 Z M 317 125 Q 307 128 301 134 Q 292 142 288 156 L 291 157 Q 293 147 300 140 Q 307 131 320 128 L 332 129 L 333 126 L 331 125 L 317 125 Z M 391 195 L 392 201 L 392 209 L 386 220 L 374 228 L 367 230 L 352 231 L 345 234 L 336 240 Q 330 247 327 258 L 327 266 L 330 266 L 331 256 L 337 245 Q 342 238 351 235 L 373 232 L 383 227 Q 392 222 395 211 L 395 199 L 394 198 Q 395 193 391 195 Z M 327 433 L 326 442 L 322 449 Q 318 454 311 456 Q 296 458 291 450 Q 287 449 288 453 L 296 458 L 304 460 Q 316 460 322 454 Q 330 448 330 435 L 327 433 Z " /><path fill="rgb(0,0,0)" stroke="rgb(0,0,0)" stroke-width="1" opacity="0" d="M 0 0 L 701 0 L 701 667 L 0 667 L 0 0 Z M 416 25 L 415 26 L 402 27 L 375 35 Q 350 44 332 59 L 305 45 L 281 36 L 261 31 L 250 30 L 249 29 L 239 29 L 238 28 L 211 29 L 184 36 Q 163 44 149 58 Q 133 72 123 91 L 117 106 L 113 129 L 113 140 L 114 141 L 114 150 L 116 161 L 120 175 L 129 197 Q 153 242 187 278 L 208 297 L 214 304 L 185 295 L 158 290 L 137 289 L 136 288 L 117 288 L 116 289 L 106 289 L 90 292 Q 74 296 63 303 L 51 312 Q 37 324 30 342 L 24 362 Q 26 368 23 370 L 23 388 L 28 409 Q 36 430 50 446 Q 69 469 96 483 L 91 504 L 90 520 L 89 521 L 89 549 L 90 550 L 91 564 Q 96 589 110 606 Q 121 619 138 628 L 154 635 L 168 639 L 180 640 L 181 641 L 206 641 L 207 640 L 218 639 L 235 634 Q 267 621 290 599 Q 320 571 342 534 L 357 562 L 372 582 L 380 590 Q 379 592 382 591 L 385 596 L 404 611 L 427 624 L 443 630 L 464 634 L 488 634 L 489 633 L 501 632 L 519 627 Q 551 616 571 593 Q 570 590 573 591 Q 583 578 590 562 L 596 542 L 597 531 L 598 530 L 598 497 L 595 478 Q 626 473 645 455 L 648 453 Q 658 443 665 430 L 671 414 L 674 398 L 674 380 L 669 356 Q 663 338 652 325 Q 638 307 616 298 L 590 290 L 572 288 L 571 287 L 561 287 L 560 286 L 532 286 L 531 287 L 509 288 L 475 294 L 451 301 L 449 301 Q 485 269 509 226 L 519 207 L 530 179 L 535 159 L 536 145 L 537 142 L 536 116 L 531 97 Q 523 77 510 63 Q 492 42 465 31 L 439 25 L 416 25 Z " /><path fill="rgb(82,42,131)" stroke="rgb(82,42,131)" stroke-width="1" opacity="0.9921568627450981" d="M 425.5 25 L 428 25.5 L 425.5 26 L 425.5 25 Z " /><path fill="rgb(82,42,131)" stroke="rgb(82,42,131)" stroke-width="1" opacity="0.9921568627450981" d="M 407.5 26 L 409 26.5 L 406.5 28 L 398.5 29 L 398.5 28 L 407.5 26 Z " /><path fill="rgb(82,42,131)" stroke="rgb(82,42,131)" stroke-width="1" opacity="0.9921568627450981" d="M 411.5 26 L 415 26.5 L 411.5 27 L 411.5 26 Z " /><path fill="rgb(82,42,131)" stroke="rgb(82,42,131)" stroke-width="1" opacity="0.9921568627450981" d="M 439.5 26 L 446 26.5 L 439.5 27 L 439.5 26 Z " /><path fill="rgb(82,42,131)" stroke="rgb(82,42,131)" stroke-width="1" opacity="0.9921568627450981" d="M 449.5 27 L 453 28.5 L 451.5 29 L 449.5 27 Z " /><path fill="rgb(82,42,131)" stroke="rgb(82,42,131)" stroke-width="1" opacity="0.9921568627450981" d="M 220.5 28 L 226 28.5 L 220.5 29 L 220.5 28 Z " /><path fill="rgb(82,42,131)" stroke="rgb(82,42,131)" stroke-width="1" opacity="0.9921568627450981" d="M 234.5 28 L 237 28.5 L 234.5 29 L 234.5 28 Z " /><path fill="rgb(82,42,131)" stroke="rgb(82,42,131)" stroke-width="1" opacity="0.9921568627450981" d="M 210.5 29 L 219 29.5 L 200.5 32 L 200.5 31 L 210.5 29 Z " /><path fill="rgb(82,42,131)" stroke="rgb(82,42,131)" stroke-width="1" opacity="0.9921568627450981" d="M 239.5 29 L 248.5 29 L 258 31.5 L 255.5 32 L 248.5 30 L 239.5 30 L 239.5 29 Z " /><path fill="rgb(82,42,131)" stroke="rgb(82,42,131)" stroke-width="1" opacity="0.9921568627450981" d="M 457.5 29 L 468 33.5 L 466.5 33 L 458.5 31 L 457.5 29 Z " /><path fill="rgb(82,42,131)" stroke="rgb(82,42,131)" stroke-width="1" opacity="0.9921568627450981" d="M 389.5 30 L 388.5 32 L 385.5 33 L 386.5 31 L 389.5 30 Z " /><path fill="rgb(82,42,131)" stroke="rgb(82,42,131)" stroke-width="1" opacity="0.9921568627450981" d="M 260.5 31 L 264 32.5 L 261.5 33 L 260.5 31 Z " /><path fill="rgb(82,42,131)" stroke="rgb(82,42,131)" stroke-width="1" opacity="0.9921568627450981" d="M 196.5 32 L 199 32.5 L 194.5 34 L 194.5 33 L 196.5 32 Z " /><path fill="rgb(82,42,131)" stroke="rgb(82,42,131)" stroke-width="1" opacity="0.9921568627450981" d="M 383.5 32 L 382.5 34 L 383.5 32 Z " /><path fill="rgb(82,42,131)" stroke="rgb(82,42,131)" stroke-width="1" opacity="0.9921568627450981" d="M 265.5 33 L 268 33.5 L 265.5 34 L 265.5 33 Z " /><path fill="rgb(82,42,131)" stroke="rgb(82,42,131)" stroke-width="1" opacity="0.9921568627450981" d="M 380.5 33 L 379.5 35 L 371.5 38 L 372.5 36 L 380.5 33 Z " /><path fill="rgb(82,42,131)" stroke="rgb(82,42,131)" stroke-width="1" opacity="0.9921568627450981" d="M 269.5 34 L 275 35.5 L 273.5 36 L 269.5 35 L 269.5 34 Z " /><path fill="rgb(82,42,131)" stroke="rgb(82,42,131)" stroke-width="1" opacity="0.9921568627450981" d="M 186.5 35 L 188 35.5 L 185.5 37 L 186.5 35 Z " /><path fill="rgb(82,42,131)" stroke="rgb(82,42,131)" stroke-width="1" opacity="0.9921568627450981" d="M 183.5 36 L 184 38 L 182 37.5 L 183.5 36 Z " /><path fill="rgb(82,42,131)" stroke="rgb(82,42,131)" stroke-width="1" opacity="0.9921568627450981" d="M 277.5 36 L 285 38.5 L 283.5 39 L 277.5 37 L 277.5 36 Z " /><path fill="rgb(82,42,131)" stroke="rgb(82,42,131)" stroke-width="1" opacity="0.9921568627450981" d="M 473.5 36 L 483 40 L 482.5 42 L 473.5 37 L 473.5 36 Z " /><path fill="rgb(82,42,131)" stroke="rgb(82,42,131)" stroke-width="1" opacity="0.9921568627450981" d="M 179.5 38 L 181 38.5 L 178.5 40 L 179.5 38 Z " /><path fill="rgb(82,42,131)" stroke="rgb(82,42,131)" stroke-width="1" opacity="0.9921568627450981" d="M 286.5 38 L 290 39 L 289.5 41 L 286 40 L 286.5 38 Z " /><path fill="rgb(82,42,131)" stroke="rgb(82,42,131)" stroke-width="1" opacity="0.9921568627450981" d="M 367.5 38 L 368 40 L 366 39.5 L 367.5 38 Z " /><path fill="rgb(82,42,131)" stroke="rgb(82,42,131)" stroke-width="1" opacity="0.9921568627450981" d="M 174.5 40 L 175 42 L 172.5 43 L 174.5 40 Z " /><path fill="rgb(82,42,131)" stroke="rgb(82,42,131)" stroke-width="1" opacity="0.9921568627450981" d="M 291.5 40 L 292.5 42 L 291.5 40 Z " /><path fill="rgb(82,42,131)" stroke="rgb(82,42,131)" stroke-width="1" opacity="0.9921568627450981" d="M 363.5 40 L 365 40.5 L 355.5 45 L 355.5 44 L 363.5 40 Z " /><path fill="rgb(82,42,131)" stroke="rgb(82,42,131)" stroke-width="1" opacity="0.9921568627450981" d="M 294.5 41 L 325 55 L 324.5 57 Q 311.2 47.5 294 43 L 294.5 41 Z " /><path fill="rgb(82,42,131)" stroke="rgb(82,42,131)" stroke-width="1" opacity="0.9921568627450981" d="M 485.5 42 L 498 51.5 L 497.5 53 L 488.5 46 L 485.5 42 Z " /><path fill="rgb(82,42,131)" stroke="rgb(82,42,131)" stroke-width="1" opacity="0.9921568627450981" d="M 169.5 43 L 171 43.5 L 167.5 46 L 167 44 L 169.5 43 Z " /><path fill="rgb(82,42,131)" stroke="rgb(82,42,131)" stroke-width="1" opacity="0.9921568627450981" d="M 165.5 45 L 166 46.5 L 164 47.5 L 165.5 45 Z " /><path fill="rgb(82,42,131)" stroke="rgb(82,42,131)" stroke-width="1" opacity="0.9921568627450981" d="M 353.5 45 L 351.5 48 L 349.5 49 L 351.5 46 L 353.5 45 Z " /><path fill="rgb(82,42,131)" stroke="rgb(82,42,131)" stroke-width="1" opacity="0.9921568627450981" d="M 161.5 48 L 163 48.5 L 157.5 52 L 158.5 50 L 161.5 48 Z " /><path fill="rgb(82,42,131)" stroke="rgb(82,42,131)" stroke-width="1" opacity="0.9921568627450981" d="M 346.5 49 L 348 49.5 L 344.5 52 L 344 50 L 346.5 49 Z " /><path fill="rgb(82,42,131)" stroke="rgb(82,42,131)" stroke-width="1" opacity="0.9921568627450981" d="M 341.5 52 L 343 52.5 L 338.5 56 L 338 54.5 L 341.5 52 Z " /><path fill="rgb(82,42,131)" stroke="rgb(82,42,131)" stroke-width="1" opacity="0.9921568627450981" d="M 154.5 53 L 156 53.5 L 150.5 58 L 154.5 53 Z " /><path fill="rgb(82,42,131)" stroke="rgb(82,42,131)" stroke-width="1" opacity="0.9921568627450981" d="M 336.5 55 L 337 56.5 L 335 57.5 L 336.5 55 Z " /><path fill="rgb(82,42,131)" stroke="rgb(82,42,131)" stroke-width="1" opacity="0.9921568627450981" d="M 501.5 55 L 510 62.5 L 508.5 63 L 501.5 55 Z " /><path fill="rgb(82,42,131)" stroke="rgb(82,42,131)" stroke-width="1" opacity="0.9921568627450981" d="M 326.5 56 L 331.5 59 L 333.5 58 L 332.5 60 L 326 58 L 326.5 56 Z " /><path fill="rgb(82,42,131)" stroke="rgb(82,42,131)" stroke-width="1" opacity="0.9921568627450981" d="M 148.5 58 L 149 59.5 L 139 68.5 L 146.5 60 Q 149 60.7 148.5 58 Z " /><path fill="rgb(82,42,131)" stroke="rgb(82,42,131)" stroke-width="1" opacity="0.9921568627450981" d="M 511.5 65 L 513.5 68 Q 515.8 67.3 515 69.5 Q 534.5 91 537 129.5 L 536 129.5 L 534 111.5 L 530 97.5 L 522 80.5 L 511 66.5 L 511.5 65 Z " /><path fill="rgb(82,42,131)" stroke="rgb(82,42,131)" stroke-width="1" opacity="0.9921568627450981" d="M 137.5 70 L 138 71.5 L 132.5 78 L 131 77.5 L 137.5 70 Z " /><path fill="rgb(82,42,131)" stroke="rgb(82,42,131)" stroke-width="1" opacity="0.9921568627450981" d="M 130.5 79 L 131 80.5 L 129 81.5 L 130.5 79 Z " /><path fill="rgb(82,42,131)" stroke="rgb(82,42,131)" stroke-width="1" opacity="0.9921568627450981" d="M 128.5 83 L 128 84.5 L 125 91 L 123 90.5 L 128.5 83 Z " /><path fill="rgb(82,42,131)" stroke="rgb(82,42,131)" stroke-width="1" opacity="0.9921568627450981" d="M 123.5 92 L 123 93.5 L 121.5 96 L 122 94.5 L 123.5 92 Z " /><path fill="rgb(82,42,131)" stroke="rgb(82,42,131)" stroke-width="1" opacity="0.9921568627450981" d="M 120 97 L 122 97.5 L 121 100 L 119 99.5 L 120 97 Z " /><path fill="rgb(82,42,131)" stroke="rgb(82,42,131)" stroke-width="1" opacity="0.9921568627450981" d="M 119.5 101 L 120 102.5 L 117.5 107 L 117 105.5 L 119.5 101 Z " /><path fill="rgb(82,42,131)" stroke="rgb(82,42,131)" stroke-width="1" opacity="0.9921568627450981" d="M 117.5 108 L 118 109.5 L 116.5 112 L 116 109.5 L 117.5 108 Z " /><path fill="rgb(82,42,131)" stroke="rgb(82,42,131)" stroke-width="1" opacity="0.9921568627450981" d="M 115 113 L 117 113.5 L 115 114.5 L 115 113 Z " /><path fill="rgb(82,42,131)" stroke="rgb(82,42,131)" stroke-width="1" opacity="0.9921568627450981" d="M 115.5 118 L 114.5 120 L 115.5 118 Z " /><path fill="rgb(82,42,131)" stroke="rgb(82,42,131)" stroke-width="1" opacity="0.9921568627450981" d="M 114.5 125 L 115 129.5 Q 112.3 131.3 114 137.5 Q 116.5 139 115 144.5 L 114 144.5 L 113 129.5 L 114.5 125 Z " /><path fill="rgb(82,42,131)" stroke="rgb(82,42,131)" stroke-width="1" opacity="0.9921568627450981" d="M 536.5 136 L 537 141.5 L 536 144.5 L 535.5 147 L 535 142.5 L 536.5 136 Z " /><path fill="rgb(82,42,131)" stroke="rgb(82,42,131)" stroke-width="1" opacity="0.9921568627450981" d="M 114.5 146 L 116 150.5 L 114 149.5 L 114.5 146 Z " /><path fill="rgb(82,42,131)" stroke="rgb(82,42,131)" stroke-width="1" opacity="0.9921568627450981" d="M 535.5 150 L 536 151.5 L 534.5 154 L 534 151.5 L 535.5 150 Z " /><path fill="rgb(82,42,131)" stroke="rgb(82,42,131)" stroke-width="1" opacity="0.9921568627450981" d="M 115.5 152 L 117 158.5 L 116 158.5 L 115.5 152 Z " /><path fill="rgb(82,42,131)" stroke="rgb(82,42,131)" stroke-width="1" opacity="0.9921568627450981" d="M 534.5 156 L 535 158.5 L 533.5 161 L 533 158.5 L 534.5 156 Z " /><path fill="rgb(82,42,131)" stroke="rgb(82,42,131)" stroke-width="1" opacity="0.9921568627450981" d="M 117.5 162 L 119 165.5 L 117 164.5 L 117.5 162 Z " /><path fill="rgb(82,42,131)" stroke="rgb(82,42,131)" stroke-width="1" opacity="0.9921568627450981" d="M 532.5 163 L 533 167.5 L 531 168.5 L 532.5 163 Z " /><path fill="rgb(82,42,131)" stroke="rgb(82,42,131)" stroke-width="1" opacity="0.9921568627450981" d="M 119.5 168 L 121 171.5 L 119 170.5 L 119.5 168 Z " /><path fill="rgb(82,42,131)" stroke="rgb(82,42,131)" stroke-width="1" opacity="0.9921568627450981" d="M 531.5 170 L 531 171.5 L 530.5 173 L 530 171.5 L 531.5 170 Z " /><path fill="rgb(82,42,131)" stroke="rgb(82,42,131)" stroke-width="1" opacity="0.9921568627450981" d="M 120.5 173 L 123 179.5 L 122 179.5 L 120.5 173 Z " /><path fill="rgb(82,42,131)" stroke="rgb(82,42,131)" stroke-width="1" opacity="0.9921568627450981" d="M 530.5 174 L 530 175.5 L 529 181.5 L 524.5 191 L 524 189.5 L 530.5 174 Z " /><path fill="rgb(82,42,131)" stroke="rgb(82,42,131)" stroke-width="1" opacity="0.9921568627450981" d="M 124.5 185 Q 126.8 184.3 126 186.5 L 129 192.5 L 127 191.5 L 124.5 185 Z " /><path fill="rgb(82,42,131)" stroke="rgb(82,42,131)" stroke-width="1" opacity="0.9921568627450981" d="M 523.5 192 L 524 194.5 L 519 207 L 517 206.5 L 523.5 192 Z " /><path fill="rgb(82,42,131)" stroke="rgb(82,42,131)" stroke-width="1" opacity="0.9921568627450981" d="M 129.5 194 L 134 203.5 L 133 203.5 L 129 196.5 L 129.5 194 Z " /><path fill="rgb(82,42,131)" stroke="rgb(82,42,131)" stroke-width="1" opacity="0.9921568627450981" d="M 134.5 205 L 138 209.5 L 136 210 L 134.5 205 Z " /><path fill="rgb(82,42,131)" stroke="rgb(82,42,131)" stroke-width="1" opacity="0.9921568627450981" d="M 516.5 208 L 517 210.5 L 511.5 219 L 512 217.5 L 516.5 208 Z " /><path fill="rgb(82,42,131)" stroke="rgb(82,42,131)" stroke-width="1" opacity="0.9921568627450981" d="M 138.5 213 Q 140.8 212.3 140 214.5 L 141.5 217 Q 139.3 217.8 140 215.5 L 138.5 213 Z " /><path fill="rgb(82,42,131)" stroke="rgb(82,42,131)" stroke-width="1" opacity="0.9921568627450981" d="M 141.5 218 L 144 219.5 Q 143.5 224 147 224.5 L 145 225 L 141.5 218 Z " /><path fill="rgb(82,42,131)" stroke="rgb(82,42,131)" stroke-width="1" opacity="0.9921568627450981" d="M 510.5 220 L 511 221.5 L 506 228.5 L 506 231 L 504 230.5 L 510.5 220 Z " /><path fill="rgb(82,42,131)" stroke="rgb(82,42,131)" stroke-width="1" opacity="0.9921568627450981" d="M 147.5 226 L 149 228.5 L 147 227.5 L 147.5 226 Z " /><path fill="rgb(82,42,131)" stroke="rgb(82,42,131)" stroke-width="1" opacity="0.9921568627450981" d="M 149.5 230 Q 151.8 229.3 151 231.5 L 170 256.5 L 166 253.5 L 149.5 230 Z " /><path fill="rgb(82,42,131)" stroke="rgb(82,42,131)" stroke-width="1" opacity="0.9921568627450981" d="M 503.5 232 L 504 233.5 L 503 236 L 501 235.5 L 503.5 232 Z " /><path fill="rgb(82,42,131)" stroke="rgb(82,42,131)" stroke-width="1" opacity="0.9921568627450981" d="M 500.5 237 L 501 238.5 L 499 242 L 497 241.5 L 500.5 237 Z " /><path fill="rgb(82,42,131)" stroke="rgb(82,42,131)" stroke-width="1" opacity="0.9921568627450981" d="M 496.5 243 L 497 245 L 495 244.5 L 496.5 243 Z " /><path fill="rgb(82,42,131)" stroke="rgb(82,42,131)" stroke-width="1" opacity="0.9921568627450981" d="M 494.5 246 L 495 247.5 L 485 262 L 482 263.5 L 478.5 269 L 477 268.5 L 494.5 246 Z " /><path fill="rgb(82,42,131)" stroke="rgb(82,42,131)" stroke-width="1" opacity="0.9921568627450981" d="M 171.5 258 L 173 261 L 176 262.5 L 184 271.5 L 182 272 Q 183.1 269.3 180.5 270 L 172 260.5 L 171.5 258 Z " /><path fill="rgb(82,42,131)" stroke="rgb(82,42,131)" stroke-width="1" opacity="0.9921568627450981" d="M 476.5 270 L 476 271.5 L 474.5 274 Q 472.3 273.3 473 275.5 L 472 275.5 L 476.5 270 Z " /><path fill="rgb(82,42,131)" stroke="rgb(82,42,131)" stroke-width="1" opacity="0.9921568627450981" d="M 184.5 273 L 193.5 283 L 189 279.5 L 187 276.5 L 184.5 273 Z " /><path fill="rgb(82,42,131)" stroke="rgb(82,42,131)" stroke-width="1" opacity="0.9921568627450981" d="M 470.5 277 L 470 278.5 L 468.5 281 L 465.5 283 L 462.5 287 L 463 285.5 L 470.5 277 Z " /><path fill="rgb(82,42,131)" stroke="rgb(82,42,131)" stroke-width="1" opacity="0.9921568627450981" d="M 531.5 286 L 535 286.5 L 531.5 287 L 531.5 286 Z " /><path fill="rgb(82,42,131)" stroke="rgb(82,42,131)" stroke-width="1" opacity="0.9921568627450981" d="M 538.5 286 L 554 286.5 L 538.5 287 L 538.5 286 Z " /><path fill="rgb(82,42,131)" stroke="rgb(82,42,131)" stroke-width="1" opacity="0.9921568627450981" d="M 555.5 286 L 560 286.5 L 555.5 287 L 555.5 286 Z " /><path fill="rgb(82,42,131)" stroke="rgb(82,42,131)" stroke-width="1" opacity="0.9921568627450981" d="M 517.5 287 L 521 287.5 L 516.5 289 L 517.5 287 Z " /><path fill="rgb(82,42,131)" stroke="rgb(82,42,131)" stroke-width="1" opacity="0.9921568627450981" d="M 524.5 287 L 530 287.5 L 524.5 288 L 524.5 287 Z " /><path fill="rgb(82,42,131)" stroke="rgb(82,42,131)" stroke-width="1" opacity="0.9921568627450981" d="M 561.5 287 L 568 287.5 L 561.5 288 L 561.5 287 Z " /><path fill="rgb(82,42,131)" stroke="rgb(82,42,131)" stroke-width="1" opacity="0.9921568627450981" d="M 116.5 288 L 124 288.5 L 107.5 290 L 107.5 289 L 115.5 289 L 116.5 288 Z " /><path fill="rgb(82,42,131)" stroke="rgb(82,42,131)" stroke-width="1" opacity="0.9921568627450981" d="M 129.5 288 L 135 288.5 L 129.5 289 L 129.5 288 Z " /><path fill="rgb(82,42,131)" stroke="rgb(82,42,131)" stroke-width="1" opacity="0.9921568627450981" d="M 460.5 288 L 455.5 294 L 460.5 288 Z " /><path fill="rgb(82,42,131)" stroke="rgb(82,42,131)" stroke-width="1" opacity="0.9921568627450981" d="M 508.5 288 L 511 288.5 L 507.5 290 L 497.5 291 L 497.5 290 L 508.5 288 Z " /><path fill="rgb(82,42,131)" stroke="rgb(82,42,131)" stroke-width="1" opacity="0.9921568627450981" d="M 572.5 288 L 575 288.5 L 572.5 289 L 572.5 288 Z " /><path fill="rgb(82,42,131)" stroke="rgb(82,42,131)" stroke-width="1" opacity="0.9921568627450981" d="M 576.5 288 L 588 290.5 L 585.5 291 L 576.5 289 L 576.5 288 Z " /><path fill="rgb(82,42,131)" stroke="rgb(82,42,131)" stroke-width="1" opacity="0.9921568627450981" d="M 137.5 289 L 144 289.5 L 137.5 290 L 137.5 289 Z " /><path fill="rgb(82,42,131)" stroke="rgb(82,42,131)" stroke-width="1" opacity="0.9921568627450981" d="M 199.5 289 L 209 297.5 L 207.5 297 L 204 294.5 Q 204.8 292.3 202.5 293 L 199.5 289 Z " /><path fill="rgb(82,42,131)" stroke="rgb(82,42,131)" stroke-width="1" opacity="0.9921568627450981" d="M 98.5 290 L 100 290.5 L 97.5 292 L 98.5 290 Z " /><path fill="rgb(82,42,131)" stroke="rgb(82,42,131)" stroke-width="1" opacity="0.9921568627450981" d="M 101.5 290 L 105 290.5 L 101.5 291 L 101.5 290 Z " /><path fill="rgb(82,42,131)" stroke="rgb(82,42,131)" stroke-width="1" opacity="0.9921568627450981" d="M 149.5 290 L 154 290.5 L 149.5 291 L 149.5 290 Z " /><path fill="rgb(82,42,131)" stroke="rgb(82,42,131)" stroke-width="1" opacity="0.9921568627450981" d="M 495.5 290 L 494.5 292 L 492 291.5 L 495.5 290 Z " /><path fill="rgb(82,42,131)" stroke="rgb(82,42,131)" stroke-width="1" opacity="0.9921568627450981" d="M 589.5 290 L 592 291.5 L 590.5 292 L 589.5 290 Z " /><path fill="rgb(82,42,131)" stroke="rgb(82,42,131)" stroke-width="1" opacity="0.9921568627450981" d="M 162.5 291 L 168 292.5 L 164.5 293 L 162.5 291 Z " /><path fill="rgb(82,42,131)" stroke="rgb(82,42,131)" stroke-width="1" opacity="0.9921568627450981" d="M 489.5 291 L 491 291.5 L 485.5 293 L 485.5 292 L 489.5 291 Z " /><path fill="rgb(82,42,131)" stroke="rgb(82,42,131)" stroke-width="1" opacity="0.9921568627450981" d="M 593.5 291 L 596 292.5 L 594.5 293 L 593.5 291 Z " /><path fill="rgb(82,42,131)" stroke="rgb(82,42,131)" stroke-width="1" opacity="0.9921568627450981" d="M 89.5 292 L 88.5 294 L 89.5 292 Z " /><path fill="rgb(82,42,131)" stroke="rgb(82,42,131)" stroke-width="1" opacity="0.9921568627450981" d="M 169.5 292 L 172 293.5 L 170.5 294 L 169.5 292 Z " /><path fill="rgb(82,42,131)" stroke="rgb(82,42,131)" stroke-width="1" opacity="0.9921568627450981" d="M 597.5 292 L 600 293.5 L 598.5 294 L 597.5 292 Z " /><path fill="rgb(82,42,131)" stroke="rgb(82,42,131)" stroke-width="1" opacity="0.9921568627450981" d="M 86.5 293 L 85.5 295 L 78.5 297 L 79.5 295 L 86.5 293 Z " /><path fill="rgb(82,42,131)" stroke="rgb(82,42,131)" stroke-width="1" opacity="0.9921568627450981" d="M 173.5 293 L 177 294.5 L 175.5 295 L 173.5 293 Z " /><path fill="rgb(82,42,131)" stroke="rgb(82,42,131)" stroke-width="1" opacity="0.9921568627450981" d="M 479.5 293 L 481 293.5 L 475.5 295 L 475.5 294 L 479.5 293 Z " /><path fill="rgb(82,42,131)" stroke="rgb(82,42,131)" stroke-width="1" opacity="0.9921568627450981" d="M 601.5 293 L 602.5 295 Q 599.7 295.7 601.5 293 Z " /><path fill="rgb(82,42,131)" stroke="rgb(82,42,131)" stroke-width="1" opacity="0.9921568627450981" d="M 604.5 294 L 614 298.5 L 612.5 298 L 604 296 L 604.5 294 Z " /><path fill="rgb(82,42,131)" stroke="rgb(82,42,131)" stroke-width="1" opacity="0.9921568627450981" d="M 183.5 295 L 190 297.5 L 188.5 298 L 184.5 297 L 183.5 295 Z " /><path fill="rgb(82,42,131)" stroke="rgb(82,42,131)" stroke-width="1" opacity="0.9921568627450981" d="M 453.5 295 L 451.5 298 Q 449.3 297.3 450 299.5 L 449 302 L 445.5 303 L 451.5 296 L 453.5 295 Z " /><path fill="rgb(82,42,131)" stroke="rgb(82,42,131)" stroke-width="1" opacity="0.9921568627450981" d="M 470.5 295 L 472 295.5 L 464.5 298 L 464.5 297 L 470.5 295 Z " /><path fill="rgb(82,42,131)" stroke="rgb(82,42,131)" stroke-width="1" opacity="0.9921568627450981" d="M 74.5 297 L 75 299 L 69.5 301 L 70.5 299 L 74.5 297 Z " /><path fill="rgb(82,42,131)" stroke="rgb(82,42,131)" stroke-width="1" opacity="0.9921568627450981" d="M 191.5 297 L 198 299.5 L 196.5 300 L 192.5 299 L 191.5 297 Z " /><path fill="rgb(82,42,131)" stroke="rgb(82,42,131)" stroke-width="1" opacity="0.9921568627450981" d="M 458.5 298 L 462 298.5 L 457.5 300 L 458.5 298 Z " /><path fill="rgb(82,42,131)" stroke="rgb(82,42,131)" stroke-width="1" opacity="0.9921568627450981" d="M 615.5 298 L 630 306.5 L 628.5 306 L 617.5 300 L 615 300 L 615.5 298 Z " /><path fill="rgb(82,42,131)" stroke="rgb(82,42,131)" stroke-width="1" opacity="0.9921568627450981" d="M 199.5 299 L 205 301.5 L 203.5 302 Q 199.5 301.5 199.5 299 Z " /><path fill="rgb(82,42,131)" stroke="rgb(82,42,131)" stroke-width="1" opacity="0.9921568627450981" d="M 210.5 299 L 215 302.5 L 215.5 305 Q 216.8 302.8 218 305.5 L 215.5 306 L 212 303.5 L 213 301 L 210.5 299 Z " /><path fill="rgb(82,42,131)" stroke="rgb(82,42,131)" stroke-width="1" opacity="0.9921568627450981" d="M 455.5 299 L 454.5 301 L 452 300.5 L 455.5 299 Z " /><path fill="rgb(82,42,131)" stroke="rgb(82,42,131)" stroke-width="1" opacity="0.9921568627450981" d="M 66.5 301 L 68 301.5 L 61.5 305 L 62.5 303 L 66.5 301 Z " /><path fill="rgb(82,42,131)" stroke="rgb(82,42,131)" stroke-width="1" opacity="0.9921568627450981" d="M 206.5 301 L 207.5 303 Q 204.7 303.7 206.5 301 Z " /><path fill="rgb(82,42,131)" stroke="rgb(82,42,131)" stroke-width="1" opacity="0.9921568627450981" d="M 209.5 302 L 210.5 304 Q 207.7 304.7 209.5 302 Z " /><path fill="rgb(82,42,131)" stroke="rgb(82,42,131)" stroke-width="1" opacity="0.9921568627450981" d="M 59.5 305 L 60 307 L 54.5 310 L 55.5 308 L 59.5 305 Z " /><path fill="rgb(82,42,131)" stroke="rgb(82,42,131)" stroke-width="1" opacity="0.9921568627450981" d="M 631.5 307 Q 633.8 306.3 633 308.5 L 631.5 307 Z " /><path fill="rgb(82,42,131)" stroke="rgb(82,42,131)" stroke-width="1" opacity="0.9921568627450981" d="M 634.5 309 L 637 310.5 L 636.5 312 L 634.5 309 Z " /><path fill="rgb(82,42,131)" stroke="rgb(82,42,131)" stroke-width="1" opacity="0.9921568627450981" d="M 52.5 311 L 45.5 319 L 44 318.5 L 46 318 L 49.5 313 L 52.5 311 Z " /><path fill="rgb(82,42,131)" stroke="rgb(82,42,131)" stroke-width="1" opacity="0.9921568627450981" d="M 638.5 312 L 641 313.5 L 643.5 317 L 646 318.5 L 647.5 321 Q 650.1 320.3 649 323 L 651 323 L 651 324.5 L 651.5 326 L 638.5 312 Z " /><path fill="rgb(82,42,131)" stroke="rgb(82,42,131)" stroke-width="1" opacity="0.9921568627450981" d="M 42.5 321 L 44 321.5 L 37.5 329 L 39 326.5 L 42.5 321 Z " /><path fill="rgb(82,42,131)" stroke="rgb(82,42,131)" stroke-width="1" opacity="0.9921568627450981" d="M 652.5 327 L 655 328.5 L 653.5 329 L 652.5 327 Z " /><path fill="rgb(82,42,131)" stroke="rgb(82,42,131)" stroke-width="1" opacity="0.9921568627450981" d="M 35 331 L 37 331.5 L 33.5 336 L 34 334.5 L 35 331 Z " /><path fill="rgb(82,42,131)" stroke="rgb(82,42,131)" stroke-width="1" opacity="0.9921568627450981" d="M 655.5 331 L 658.5 335 Q 656.3 335.8 657 333.5 L 655.5 331 Z " /><path fill="rgb(82,42,131)" stroke="rgb(82,42,131)" stroke-width="1" opacity="0.9921568627450981" d="M 32.5 338 L 33 339.5 L 28.5 350 L 28 347.5 L 32.5 338 Z " /><path fill="rgb(82,42,131)" stroke="rgb(82,42,131)" stroke-width="1" opacity="0.9921568627450981" d="M 661.5 341 Q 663.8 340.3 663 342.5 L 663.5 344 Q 661.3 344.8 662 342.5 L 661.5 341 Z " /><path fill="rgb(82,42,131)" stroke="rgb(82,42,131)" stroke-width="1" opacity="0.9921568627450981" d="M 664.5 347 L 667 350.5 L 665 349.5 L 664.5 347 Z " /><path fill="rgb(82,42,131)" stroke="rgb(82,42,131)" stroke-width="1" opacity="0.9921568627450981" d="M 27.5 352 L 28 354 L 26 353.5 L 27.5 352 Z " /><path fill="rgb(82,42,131)" stroke="rgb(82,42,131)" stroke-width="1" opacity="0.9921568627450981" d="M 667.5 354 Q 669.8 354.8 669 358.5 L 668 358.5 L 667.5 354 Z " /><path fill="rgb(82,42,131)" stroke="rgb(82,42,131)" stroke-width="1" opacity="0.9921568627450981" d="M 26.5 355 L 27 356.5 L 25.5 359 L 25 357.5 L 26.5 355 Z " /><path fill="rgb(82,42,131)" stroke="rgb(82,42,131)" stroke-width="1" opacity="0.9921568627450981" d="M 25.5 360 L 26 361.5 L 24.5 365 L 24 361.5 L 25.5 360 Z " /><path fill="rgb(82,42,131)" stroke="rgb(82,42,131)" stroke-width="1" opacity="0.9921568627450981" d="M 670.5 362 L 671 364.5 L 670 364.5 L 670.5 362 Z " /><path fill="rgb(82,42,131)" stroke="rgb(82,42,131)" stroke-width="1" opacity="0.9921568627450981" d="M 24.5 366 L 25 368.5 L 23.5 375 L 23 369.5 L 24.5 366 Z " /><path fill="rgb(82,42,131)" stroke="rgb(82,42,131)" stroke-width="1" opacity="0.9921568627450981" d="M 671.5 366 L 672 368.5 L 671 368.5 L 671.5 366 Z " /><path fill="rgb(82,42,131)" stroke="rgb(82,42,131)" stroke-width="1" opacity="0.9921568627450981" d="M 672.5 372 L 674 381.5 L 673 381.5 L 672.5 372 Z " /><path fill="rgb(82,42,131)" stroke="rgb(82,42,131)" stroke-width="1" opacity="0.9921568627450981" d="M 23.5 376 L 24 381.5 L 23 381.5 L 23.5 376 Z " /><path fill="rgb(82,42,131)" stroke="rgb(82,42,131)" stroke-width="1" opacity="0.9921568627450981" d="M 23.5 386 Q 26.5 385.5 25 392.5 L 26 396.5 L 25 396.5 L 23.5 386 Z " /><path fill="rgb(82,42,131)" stroke="rgb(82,42,131)" stroke-width="1" opacity="0.9921568627450981" d="M 673.5 386 L 674 391.5 L 673 391.5 L 673.5 386 Z " /><path fill="rgb(82,42,131)" stroke="rgb(82,42,131)" stroke-width="1" opacity="0.9921568627450981" d="M 673.5 394 L 674 396.5 L 673 396.5 L 673.5 394 Z " /><path fill="rgb(82,42,131)" stroke="rgb(82,42,131)" stroke-width="1" opacity="0.9921568627450981" d="M 25.5 398 Q 28.5 397.1 27 401.5 L 28 403.5 L 27 403.5 L 25.5 398 Z " /><path fill="rgb(82,42,131)" stroke="rgb(82,42,131)" stroke-width="1" opacity="0.9921568627450981" d="M 672.5 403 L 673 404.5 L 671.5 408 L 671 405.5 L 672.5 403 Z " /><path fill="rgb(82,42,131)" stroke="rgb(82,42,131)" stroke-width="1" opacity="0.9921568627450981" d="M 27.5 405 Q 30.1 404.2 29 407.5 L 38 425.5 L 36 426 L 27.5 405 Z " /><path fill="rgb(82,42,131)" stroke="rgb(82,42,131)" stroke-width="1" opacity="0.9921568627450981" d="M 670.5 411 L 671 413.5 L 669 414.5 L 670.5 411 Z " /><path fill="rgb(82,42,131)" stroke="rgb(82,42,131)" stroke-width="1" opacity="0.9921568627450981" d="M 668.5 418 L 669 419.5 L 667 420.5 L 668.5 418 Z " /><path fill="rgb(82,42,131)" stroke="rgb(82,42,131)" stroke-width="1" opacity="0.9921568627450981" d="M 666 422 L 668 422.5 L 665.5 426 L 666 424.5 L 666 422 Z " /><path fill="rgb(82,42,131)" stroke="rgb(82,42,131)" stroke-width="1" opacity="0.9921568627450981" d="M 38.5 427 L 46 438.5 L 44 437.5 L 39 430.5 L 38.5 427 Z " /><path fill="rgb(82,42,131)" stroke="rgb(82,42,131)" stroke-width="1" opacity="0.9921568627450981" d="M 664.5 427 L 665 429.5 L 655 445 L 653 444.5 Q 660.5 437.5 664.5 427 Z " /><path fill="rgb(82,42,131)" stroke="rgb(82,42,131)" stroke-width="1" opacity="0.9921568627450981" d="M 47.5 440 L 50 443.5 L 47 441.5 L 47.5 440 Z " /><path fill="rgb(82,42,131)" stroke="rgb(82,42,131)" stroke-width="1" opacity="0.9921568627450981" d="M 51.5 445 L 60 454.5 L 57 452.5 Q 57.8 450.3 55.5 451 Q 51.4 448.7 51.5 445 Z " /><path fill="rgb(82,42,131)" stroke="rgb(82,42,131)" stroke-width="1" opacity="0.9921568627450981" d="M 652.5 446 L 650.5 449 L 652.5 446 Z " /><path fill="rgb(82,42,131)" stroke="rgb(82,42,131)" stroke-width="1" opacity="0.9921568627450981" d="M 648.5 450 L 650 450.5 L 647 452.5 L 648.5 450 Z " /><path fill="rgb(82,42,131)" stroke="rgb(82,42,131)" stroke-width="1" opacity="0.9921568627450981" d="M 61.5 455 L 69.5 464 L 66 461.5 Q 66.8 459.3 64.5 460 L 61 456.5 L 61.5 455 Z " /><path fill="rgb(82,42,131)" stroke="rgb(82,42,131)" stroke-width="1" opacity="0.9921568627450981" d="M 642.5 455 L 644 455.5 L 642 456 L 640.5 459 L 629.5 466 L 631.5 463 L 642.5 455 Z " /><path fill="rgb(82,42,131)" stroke="rgb(82,42,131)" stroke-width="1" opacity="0.9921568627450981" d="M 72.5 465 L 87 476.5 L 86.5 478 L 73 467.5 L 72.5 465 Z " /><path fill="rgb(82,42,131)" stroke="rgb(82,42,131)" stroke-width="1" opacity="0.9921568627450981" d="M 626.5 466 L 627 468 L 624.5 469 L 624 467 L 626.5 466 Z " /><path fill="rgb(82,42,131)" stroke="rgb(82,42,131)" stroke-width="1" opacity="0.9921568627450981" d="M 622.5 468 L 623 470 L 620 469.5 L 622.5 468 Z " /><path fill="rgb(82,42,131)" stroke="rgb(82,42,131)" stroke-width="1" opacity="0.9921568627450981" d="M 618.5 470 L 617.5 472 L 612.5 474 L 613.5 472 L 618.5 470 Z " /><path fill="rgb(82,42,131)" stroke="rgb(82,42,131)" stroke-width="1" opacity="0.9921568627450981" d="M 607.5 474 L 606.5 476 L 598.5 478 L 599.5 476 L 607.5 474 Z " /><path fill="rgb(82,42,131)" stroke="rgb(82,42,131)" stroke-width="1" opacity="0.9921568627450981" d="M 88.5 477 L 97 483.5 L 96 489.5 L 94.5 491 L 94 489.5 L 96 483 Q 90.2 481.6 88.5 477 Z " /><path fill="rgb(82,42,131)" stroke="rgb(82,42,131)" stroke-width="1" opacity="0.9921568627450981" d="M 594.5 478 L 596 483.5 L 594 482.5 L 594.5 478 Z " /><path fill="rgb(82,42,131)" stroke="rgb(82,42,131)" stroke-width="1" opacity="0.9921568627450981" d="M 595.5 485 L 597 490.5 L 596 490.5 L 595.5 485 Z " /><path fill="rgb(82,42,131)" stroke="rgb(82,42,131)" stroke-width="1" opacity="0.9921568627450981" d="M 94.5 492 L 95 493.5 L 93 494.5 L 94.5 492 Z " /><path fill="rgb(82,42,131)" stroke="rgb(82,42,131)" stroke-width="1" opacity="0.9921568627450981" d="M 596.5 492 L 598 499.5 L 597 499.5 L 596.5 492 Z " /><path fill="rgb(82,42,131)" stroke="rgb(82,42,131)" stroke-width="1" opacity="0.9921568627450981" d="M 93.5 496 L 94 498.5 L 92.5 502 L 92 498.5 L 93.5 496 Z " /><path fill="rgb(82,42,131)" stroke="rgb(82,42,131)" stroke-width="1" opacity="0.9921568627450981" d="M 597.5 501 L 598 519.5 L 597 519.5 L 597.5 501 Z " /><path fill="rgb(82,42,131)" stroke="rgb(82,42,131)" stroke-width="1" opacity="0.9921568627450981" d="M 92.5 503 L 93 505 L 91 504.5 L 92.5 503 Z " /><path fill="rgb(82,42,131)" stroke="rgb(82,42,131)" stroke-width="1" opacity="0.9921568627450981" d="M 91.5 508 L 92 510.5 L 91 511.5 L 91 520.5 L 89.5 522 L 90 520.5 Q 88.7 512.1 91.5 508 Z " /><path fill="rgb(82,42,131)" stroke="rgb(82,42,131)" stroke-width="1" opacity="0.9921568627450981" d="M 597.5 521 L 598 528.5 L 596.5 534 L 596 529.5 L 597.5 521 Z " /><path fill="rgb(82,42,131)" stroke="rgb(82,42,131)" stroke-width="1" opacity="0.9921568627450981" d="M 89.5 523 L 90 528.5 L 89 528.5 L 89.5 523 Z " /><path fill="rgb(82,42,131)" stroke="rgb(82,42,131)" stroke-width="1" opacity="0.9921568627450981" d="M 89.5 531 L 90 539.5 L 89 539.5 L 89.5 531 Z " /><path fill="rgb(82,42,131)" stroke="rgb(82,42,131)" stroke-width="1" opacity="0.9921568627450981" d="M 341.5 532 L 342.5 534 L 341 533.5 L 340 537 L 338 536.5 L 341.5 532 Z " /><path fill="rgb(82,42,131)" stroke="rgb(82,42,131)" stroke-width="1" opacity="0.9921568627450981" d="M 595 536 L 597 536.5 L 595.5 540 L 595 536 Z " /><path fill="rgb(82,42,131)" stroke="rgb(82,42,131)" stroke-width="1" opacity="0.9921568627450981" d="M 338.5 538 L 337.5 540 L 338.5 538 Z " /><path fill="rgb(82,42,131)" stroke="rgb(82,42,131)" stroke-width="1" opacity="0.9921568627450981" d="M 345.5 539 L 348 542.5 L 346 543 L 345.5 539 Z " /><path fill="rgb(82,42,131)" stroke="rgb(82,42,131)" stroke-width="1" opacity="0.9921568627450981" d="M 335 541 L 337 541.5 L 335 545 L 333 544.5 L 335 541 Z " /><path fill="rgb(82,42,131)" stroke="rgb(82,42,131)" stroke-width="1" opacity="0.9921568627450981" d="M 594.5 543 L 595 545.5 L 593 546.5 L 594.5 543 Z " /><path fill="rgb(82,42,131)" stroke="rgb(82,42,131)" stroke-width="1" opacity="0.9921568627450981" d="M 347.5 544 Q 349.8 543.3 349 545.5 L 351 549.5 L 350 549.5 L 347.5 544 Z " /><path fill="rgb(82,42,131)" stroke="rgb(82,42,131)" stroke-width="1" opacity="0.9921568627450981" d="M 332.5 546 L 333 547.5 L 325.5 558 L 324 557.5 L 332.5 546 Z " /><path fill="rgb(82,42,131)" stroke="rgb(82,42,131)" stroke-width="1" opacity="0.9921568627450981" d="M 593.5 548 L 594 549.5 L 590.5 557 L 591 555.5 L 592 549.5 L 593.5 548 Z " /><path fill="rgb(82,42,131)" stroke="rgb(82,42,131)" stroke-width="1" opacity="0.9921568627450981" d="M 90.5 549 L 93 565.5 L 92 565.5 L 90 557.5 L 90.5 549 Z " /><path fill="rgb(82,42,131)" stroke="rgb(82,42,131)" stroke-width="1" opacity="0.9921568627450981" d="M 351.5 551 Q 353.8 550.3 353 552.5 L 360 562.5 L 356 559.5 L 351.5 551 Z " /><path fill="rgb(82,42,131)" stroke="rgb(82,42,131)" stroke-width="1" opacity="0.9921568627450981" d="M 321.5 561 L 322 562.5 L 314.5 572 L 314 570.5 L 321.5 561 Z " /><path fill="rgb(82,42,131)" stroke="rgb(82,42,131)" stroke-width="1" opacity="0.9921568627450981" d="M 588 561 L 590 561.5 L 587.5 565 L 588 563.5 L 588 561 Z " /><path fill="rgb(82,42,131)" stroke="rgb(82,42,131)" stroke-width="1" opacity="0.9921568627450981" d="M 360.5 565 Q 362.8 564.3 362 566.5 L 365 570.5 L 362 568.5 L 360.5 565 Z " /><path fill="rgb(82,42,131)" stroke="rgb(82,42,131)" stroke-width="1" opacity="0.9921568627450981" d="M 92.5 567 Q 95.1 566.2 94 569.5 L 93 569.5 L 92.5 567 Z " /><path fill="rgb(82,42,131)" stroke="rgb(82,42,131)" stroke-width="1" opacity="0.9921568627450981" d="M 584.5 570 L 585 572.5 Q 576.8 587.8 564.5 599 L 562.5 600 L 573 588.5 L 575 585.5 L 584.5 570 Z " /><path fill="rgb(82,42,131)" stroke="rgb(82,42,131)" stroke-width="1" opacity="0.9921568627450981" d="M 94.5 571 L 98 580.5 L 96 581 L 94 574.5 L 94.5 571 Z " /><path fill="rgb(82,42,131)" stroke="rgb(82,42,131)" stroke-width="1" opacity="0.9921568627450981" d="M 366.5 572 L 379 587.5 L 375 584.5 L 373 581.5 L 366 573.5 L 366.5 572 Z " /><path fill="rgb(82,42,131)" stroke="rgb(82,42,131)" stroke-width="1" opacity="0.9921568627450981" d="M 312.5 573 L 311 575.5 L 308.5 579 L 308 577.5 L 312.5 573 Z " /><path fill="rgb(82,42,131)" stroke="rgb(82,42,131)" stroke-width="1" opacity="0.9921568627450981" d="M 306.5 580 L 306 581.5 L 294.5 594 Q 292.3 593.3 293 595.5 L 290 597 Q 291.1 599.7 288.5 599 Q 275.5 613 257.5 622 L 257.5 621 Q 285.8 604.3 306.5 580 Z " /><path fill="rgb(82,42,131)" stroke="rgb(82,42,131)" stroke-width="1" opacity="0.9921568627450981" d="M 97.5 582 L 98.5 584 L 97.5 582 Z " /><path fill="rgb(82,42,131)" stroke="rgb(82,42,131)" stroke-width="1" opacity="0.9921568627450981" d="M 98.5 585 Q 100.8 584.3 100 586.5 L 100.5 588 Q 98.3 588.8 99 586.5 L 98.5 585 Z " /><path fill="rgb(82,42,131)" stroke="rgb(82,42,131)" stroke-width="1" opacity="0.9921568627450981" d="M 380.5 589 L 387.5 597 L 380.5 589 Z " /><path fill="rgb(82,42,131)" stroke="rgb(82,42,131)" stroke-width="1" opacity="0.9921568627450981" d="M 102.5 593 Q 104.8 592.3 104 594.5 L 102.5 593 Z " /><path fill="rgb(82,42,131)" stroke="rgb(82,42,131)" stroke-width="1" opacity="0.9921568627450981" d="M 104.5 596 L 118.5 613 L 122 615.5 L 121.5 617 Q 110.3 608.1 104.5 596 Z " /><path fill="rgb(82,42,131)" stroke="rgb(82,42,131)" stroke-width="1" opacity="0.9921568627450981" d="M 390.5 598 L 393 602 L 395 602.5 L 393.5 603 L 390 599.5 L 390.5 598 Z " /><path fill="rgb(82,42,131)" stroke="rgb(82,42,131)" stroke-width="1" opacity="0.9921568627450981" d="M 560.5 601 L 562 601.5 L 545.5 613 L 545.5 612 L 560.5 601 Z " /><path fill="rgb(82,42,131)" stroke="rgb(82,42,131)" stroke-width="1" opacity="0.9921568627450981" d="M 396.5 604 L 404 609.5 L 402.5 610 L 396.5 604 Z " /><path fill="rgb(82,42,131)" stroke="rgb(82,42,131)" stroke-width="1" opacity="0.9921568627450981" d="M 405.5 610 L 410 613.5 L 408.5 614 L 405 612 L 405.5 610 Z " /><path fill="rgb(82,42,131)" stroke="rgb(82,42,131)" stroke-width="1" opacity="0.9921568627450981" d="M 543.5 613 L 544 615 L 542 614.5 L 543.5 613 Z " /><path fill="rgb(82,42,131)" stroke="rgb(82,42,131)" stroke-width="1" opacity="0.9921568627450981" d="M 411.5 614 L 414.5 618 L 411 616 L 411.5 614 Z " /><path fill="rgb(82,42,131)" stroke="rgb(82,42,131)" stroke-width="1" opacity="0.9921568627450981" d="M 538.5 616 L 541 616.5 L 536.5 619 L 536 617 L 538.5 616 Z " /><path fill="rgb(82,42,131)" stroke="rgb(82,42,131)" stroke-width="1" opacity="0.9921568627450981" d="M 418.5 618 L 427 622 L 426.5 624 L 418 620 L 418.5 618 Z " /><path fill="rgb(82,42,131)" stroke="rgb(82,42,131)" stroke-width="1" opacity="0.9921568627450981" d="M 125.5 619 Q 127.8 618.3 127 620.5 L 125.5 619 Z " /><path fill="rgb(82,42,131)" stroke="rgb(82,42,131)" stroke-width="1" opacity="0.9921568627450981" d="M 532.5 619 L 533 621 L 528.5 622 L 528.5 621 L 532.5 619 Z " /><path fill="rgb(82,42,131)" stroke="rgb(82,42,131)" stroke-width="1" opacity="0.9921568627450981" d="M 129.5 621 L 130.5 623 Q 127.7 623.7 129.5 621 Z " /><path fill="rgb(82,42,131)" stroke="rgb(82,42,131)" stroke-width="1" opacity="0.9921568627450981" d="M 255.5 622 L 256 624 L 250.5 626 L 250.5 625 L 255.5 622 Z " /><path fill="rgb(82,42,131)" stroke="rgb(82,42,131)" stroke-width="1" opacity="0.9921568627450981" d="M 428.5 623 L 434 625.5 L 431.5 626 L 428.5 623 Z " /><path fill="rgb(82,42,131)" stroke="rgb(82,42,131)" stroke-width="1" opacity="0.9921568627450981" d="M 521.5 624 L 520.5 626 L 500.5 632 L 501.5 630 L 508.5 629 L 521.5 624 Z " /><path fill="rgb(82,42,131)" stroke="rgb(82,42,131)" stroke-width="1" opacity="0.9921568627450981" d="M 135.5 625 Q 144.7 631.3 157 634.5 L 153.5 635 L 139.5 629 L 135.5 625 Z " /><path fill="rgb(82,42,131)" stroke="rgb(82,42,131)" stroke-width="1" opacity="0.9921568627450981" d="M 439.5 627 L 447 630.5 L 445.5 630 L 439 629 L 439.5 627 Z " /><path fill="rgb(82,42,131)" stroke="rgb(82,42,131)" stroke-width="1" opacity="0.9921568627450981" d="M 244.5 628 L 243.5 630 L 239.5 631 L 239.5 630 L 244.5 628 Z " /><path fill="rgb(82,42,131)" stroke="rgb(82,42,131)" stroke-width="1" opacity="0.9921568627450981" d="M 448.5 630 L 452 631.5 L 450.5 632 L 448.5 630 Z " /><path fill="rgb(82,42,131)" stroke="rgb(82,42,131)" stroke-width="1" opacity="0.9921568627450981" d="M 237.5 631 L 236.5 633 L 233.5 634 L 234.5 632 L 237.5 631 Z " /><path fill="rgb(82,42,131)" stroke="rgb(82,42,131)" stroke-width="1" opacity="0.9921568627450981" d="M 453.5 631 L 463 632.5 L 456.5 633 L 453.5 632 L 453.5 631 Z " /><path fill="rgb(82,42,131)" stroke="rgb(82,42,131)" stroke-width="1" opacity="0.9921568627450981" d="M 495.5 631 L 499 631.5 L 495.5 632 L 495.5 631 Z " /><path fill="rgb(82,42,131)" stroke="rgb(82,42,131)" stroke-width="1" opacity="0.9921568627450981" d="M 490.5 632 L 494 632.5 L 490.5 633 L 490.5 632 Z " /><path fill="rgb(82,42,131)" stroke="rgb(82,42,131)" stroke-width="1" opacity="0.9921568627450981" d="M 231.5 633 L 232 635 L 228.5 636 L 229.5 634 L 231.5 633 Z " /><path fill="rgb(82,42,131)" stroke="rgb(82,42,131)" stroke-width="1" opacity="0.9921568627450981" d="M 466.5 633 L 480 633.5 L 466.5 634 L 466.5 633 Z " /><path fill="rgb(82,42,131)" stroke="rgb(82,42,131)" stroke-width="1" opacity="0.9921568627450981" d="M 484.5 633 L 487 633.5 L 484.5 634 L 484.5 633 Z " /><path fill="rgb(82,42,131)" stroke="rgb(82,42,131)" stroke-width="1" opacity="0.9921568627450981" d="M 158.5 635 L 161 636.5 L 159.5 636 L 158.5 635 Z " /><path fill="rgb(82,42,131)" stroke="rgb(82,42,131)" stroke-width="1" opacity="0.9921568627450981" d="M 225.5 635 L 227 635.5 L 223.5 637 L 223.5 636 L 225.5 635 Z " /><path fill="rgb(82,42,131)" stroke="rgb(82,42,131)" stroke-width="1" opacity="0.9921568627450981" d="M 162.5 636 L 168 637.5 L 163.5 638 L 162.5 636 Z " /><path fill="rgb(82,42,131)" stroke="rgb(82,42,131)" stroke-width="1" opacity="0.9921568627450981" d="M 218.5 637 L 220 637.5 Q 218.3 639.8 213.5 639 L 213.5 638 L 218.5 637 Z " /><path fill="rgb(82,42,131)" stroke="rgb(82,42,131)" stroke-width="1" opacity="0.9921568627450981" d="M 169.5 638 L 175 639.5 L 173.5 640 L 169.5 639 L 169.5 638 Z " /><path fill="rgb(82,42,131)" stroke="rgb(82,42,131)" stroke-width="1" opacity="0.9921568627450981" d="M 176.5 639 L 179 639.5 L 176.5 640 L 176.5 639 Z " /><path fill="rgb(82,42,131)" stroke="rgb(82,42,131)" stroke-width="1" opacity="0.9921568627450981" d="M 206.5 639 L 209 639.5 L 202.5 641 L 202.5 640 L 206.5 639 Z " /><path fill="rgb(82,42,131)" stroke="rgb(82,42,131)" stroke-width="1" opacity="0.9921568627450981" d="M 180.5 640 L 201 640.5 L 180.5 641 L 180.5 640 Z " /><path fill="rgb(83,43,132)" stroke="rgb(83,43,132)" stroke-width="1" opacity="1" d="M 415.5 25 L 417.5 25 L 421.5 26 L 424.5 25 L 427.5 26 L 430.5 25 L 432.5 26 L 434.5 26 L 436.5 25 L 439 25.5 L 439.5 27 L 448.5 27 L 452.5 29 L 454.5 29 L 463.5 32 L 465 31.5 L 464.5 33 L 467.5 34 L 469.5 33 L 471.5 36 L 473.5 35 L 473.5 37 L 476.5 38 L 478 37.5 L 477.5 39 L 482.5 42 L 485 41 L 486.5 44 L 488 43.5 Q 485.7 44.7 488.5 46 L 494.5 50 L 496 49.5 Q 493.2 51.3 497.5 53 L 499 52.5 L 501 55.5 L 511 64.5 L 511.5 67 Q 512.8 64.8 514 67.5 Q 511.5 69 515 70.5 L 518.5 76 Q 519.8 73.8 521 76.5 L 520 78.5 L 522 78.5 L 522 80.5 L 522.5 82 L 524 81.5 L 523 83.5 L 527.5 92 L 529 91.5 L 528 94.5 L 529.5 97 L 531 96.5 L 530 99.5 L 532 99.5 L 531 102.5 L 533 102.5 L 532 106.5 L 534 111.5 L 537 135.5 L 535 146.5 L 536 149.5 L 534 151.5 L 535 155.5 L 533 160.5 L 534 163.5 L 532 163.5 L 531 168.5 L 531.5 172 L 530 171.5 L 531 173.5 L 529 175.5 L 524 190.5 L 525 192.5 L 523 192.5 L 521 198.5 L 521.5 200 L 520 199.5 L 517 206.5 L 517.5 208 Q 515.3 207.3 516 209.5 L 511 218.5 L 511.5 220 L 509 221.5 L 506 227.5 L 506.5 229 L 505 228.5 L 504 230.5 L 504.5 232 L 502 233.5 L 501 235.5 L 501.5 237 L 499 238.5 L 500 240.5 L 497 241.5 L 497.5 243 L 495 244.5 L 496 246.5 L 493 247.5 L 483 261.5 Q 485.3 262.8 482.5 264 L 481 263.5 L 482 265.5 Q 479.5 263.7 477 268.5 L 477.5 270 L 476 270.5 L 476.5 272 Q 474.8 269.3 473 273.5 L 473.5 275 L 472 274.5 Q 473.1 277.8 470.5 277 L 470.5 279 Q 468.7 276.3 467 280.5 L 467.5 282 Q 466.3 279.8 465 282.5 Q 467.2 283.8 464.5 285 L 463 284.5 L 462 288 L 455 293.5 Q 455.8 295.8 453.5 295 L 450 297.5 L 450.5 299 L 449.5 298 L 445 302.5 L 446.5 303 L 449.5 301 L 451 301.5 L 451.5 300 L 454.5 301 L 458.5 299 L 462 299 Q 460.9 296.3 463.5 297 L 465.5 298 L 474.5 294 L 478.5 295 L 481.5 293 L 484 294 L 484.5 292 L 488.5 293 L 491.5 291 L 494.5 292 Q 496 288.5 497.5 291 L 507.5 290 L 512.5 288 L 514.5 289 L 517.5 288 L 523.5 287 Q 524.8 289.2 529.5 288 L 535.5 286 L 538.5 287 L 553.5 287 L 554.5 286 L 561.5 288 L 567.5 288 L 569.5 288 L 574.5 289 L 576.5 289 L 587.5 291 Q 589 288.5 590.5 292 L 592.5 291 L 595.5 293 Q 597 290.5 598.5 294 L 600.5 293 L 601 295 L 603.5 294 L 604 296 L 609.5 297 L 611 296.5 L 610.5 298 L 613.5 299 L 615 298.5 Q 614.2 301.1 617.5 300 L 628.5 306 Q 629.8 303.8 631 306.5 L 632.5 309 L 634 308.5 L 636.5 312 L 638 311.5 L 640.5 315 Q 642.3 312.2 644 316.5 Q 641.3 318.3 645.5 320 Q 646.8 317.8 648 320.5 Q 645.8 321.8 648.5 323 L 650 322.5 Q 647.7 323.8 650.5 325 L 652 324.5 L 651.5 326 L 654 327.5 L 653.5 329 L 657 331.5 L 657 333.5 Q 656.3 336.1 659 335 L 659 338 L 660.5 338 L 662 340.5 L 662 342.5 Q 661.3 344.8 663.5 344 L 663.5 346 L 665 346.5 L 665 348.5 L 667 351.5 L 666.5 353 L 668 353.5 L 667 355.5 L 668 359 L 670 359.5 L 670 361.5 L 672 369.5 L 671.5 371 L 673 371.5 Q 670.5 373 672 378.5 L 674 382.5 L 673 384.5 L 673 386.5 L 674 393.5 L 673 396.5 L 673.5 398 Q 671.3 397.3 672 399.5 L 673 402.5 L 671 407.5 L 671 409.5 L 669 414.5 L 669 416.5 L 667 420.5 L 667.5 422 Q 664.9 421.2 666 424.5 L 665.5 427 Q 663.3 426.3 664 428.5 L 663 430.5 L 663.5 432 L 662 431.5 L 658 438.5 L 658.5 440 Q 657.3 437.7 656 440.5 L 657 442.5 L 653 444.5 L 653.5 446 L 651 447.5 Q 653.3 448.7 650.5 450 L 647 451.5 L 646 455 L 642 455.5 L 642.5 457 L 641.5 456 L 638.5 459 L 627.5 467 L 625.5 467 Q 623.3 466.3 624 468.5 L 621.5 469 Q 619.3 468.3 620 470.5 L 617.5 471 L 611.5 474 L 610 473.5 Q 610.8 475.8 608.5 475 L 606.5 475 L 599.5 476 L 597.5 478 L 595.5 478 Q 592.1 477.1 594 482.5 Q 597.5 484 595 485.5 L 597 491.5 L 596 495.5 L 598 500.5 L 597 501.5 L 597 519.5 L 597 521.5 Q 595.3 527.8 598 529.5 L 596 529.5 L 597 536 Q 593.7 534.7 595 539.5 L 595.5 541 L 594 541.5 L 594 543.5 L 593 546.5 Q 595.5 548 592 549.5 L 593 553.5 L 591 553.5 L 590 556.5 L 591 559 L 589 559.5 L 589.5 561 Q 586.9 560.2 588 563.5 L 587.5 566 L 586 566.5 L 586.5 568 L 585 568.5 L 586 570.5 L 584 570.5 L 575 587 Q 572.3 585.9 573 588.5 L 572.5 591 L 571.5 590 L 563 598.5 Q 565.3 599.8 562.5 601 L 559 602.5 L 559.5 604 L 557.5 604 L 545 612.5 L 545.5 614 L 543.5 613 L 542 616 L 538 616.5 L 538.5 618 L 536 617 L 535.5 619 L 534 618.5 L 533.5 620 L 531.5 620 L 528 621 L 527.5 623 L 526 622.5 L 525.5 624 L 523.5 623 L 523.5 625 L 521.5 624 L 508.5 629 L 501.5 630 L 499.5 632 L 495 631 L 494.5 633 L 490.5 632 L 488 632.5 L 487.5 634 L 484.5 633 L 481.5 634 L 479.5 633 L 466.5 633 L 463 633.5 Q 463.5 630.5 456.5 632 L 453.5 631 Q 452 633.5 450.5 630 L 447.5 631 L 443.5 629 L 442 629.5 L 442.5 628 L 439.5 627 L 437 628 L 436.5 626 L 434 627 Q 435.3 624 431.5 625 L 428.5 623 L 427 623.5 Q 427.8 621.3 425.5 622 L 418.5 618 L 417 618.5 L 416.5 617 L 415.5 618 Q 412.8 612.6 410 614.5 L 408.5 612 L 405.5 610 L 403.5 611 L 402.5 608 L 397.5 604 L 395 604 L 395 602 Q 392.3 603.1 393 600.5 L 388 597.5 L 386.5 595 L 385 595.5 L 386 594.5 L 381.5 590 L 380 590.5 L 380.5 589 Q 378.3 589.8 379 587.5 L 375.5 583 L 374 583.5 Q 376.3 582.2 373.5 581 L 372 581.5 Q 374.5 580 371 578.5 L 370.5 577 Q 369.3 579.3 368 576.5 L 368 574.5 L 366.5 572 L 365 572.5 L 365 569.5 L 362 565 L 357 561.5 L 358 559.5 L 353 551 Q 350 552.3 351 548.5 L 349 544 L 347 543.5 Q 349.5 542 346 540.5 Q 346.8 538.3 344.5 539 L 344.5 537 L 343 536.5 L 343.5 535 L 340.5 533 L 338 536.5 Q 340.5 538 337 539.5 L 335 542.5 Q 331.9 544.3 333.5 546 L 331 547.5 L 324 557.5 L 324.5 559 Q 321.9 558.2 323 561.5 L 321 561.5 L 314 570.5 L 314 573 L 312 573.5 Q 314.3 574.8 311.5 576 Q 309.7 573.3 308 577.5 Q 309.1 580.8 306.5 580 L 293 593.5 L 293.5 595 Q 291.8 592.3 290 596.5 L 290.5 598 L 289.5 597 L 285.5 601 L 281 604.5 L 281.5 606 L 279.5 606 L 272 611.5 L 272.5 613 L 270.5 613 L 262 618.5 L 262.5 620 L 260.5 619 L 257 621 L 256.5 623 L 254.5 623 L 250 625 L 249.5 627 L 248 626.5 L 247.5 628 L 246 627.5 L 245.5 629 L 243.5 629 L 239 630.5 L 239.5 632 L 237.5 631 L 232.5 634 L 230.5 634 L 227.5 636 L 225.5 635 L 220.5 638 L 218.5 637 L 213 638 L 212.5 640 L 210.5 639 L 208.5 639 L 201.5 641 L 200.5 640 L 179.5 640 L 176.5 639 L 174.5 639 L 169.5 638 L 167.5 639 L 167.5 637 L 162.5 636 Q 161 638.5 159.5 635 L 157.5 636 L 157 634 L 146.5 631 L 145 631.5 L 145.5 630 L 142.5 629 L 141 629.5 L 141.5 628 L 138.5 627 L 137 627.5 L 137.5 626 L 135.5 625 Q 134.3 627.3 133 624.5 L 132.5 623 L 130.5 624 L 129.5 621 Q 128.3 623.3 127 620.5 L 127 619 Q 123.2 620.5 124 617.5 L 122 617.5 Q 122.5 613.5 119.5 613 L 116 610.5 L 111.5 605 L 110 605.5 L 110 603.5 L 104 595.5 L 104 593 L 101 591.5 L 102 589.5 L 100 588.5 L 100 586.5 Q 100.8 584.3 98.5 585 L 97 579.5 L 95.5 575 L 94 575.5 L 95 571.5 L 93 571.5 L 94 567 L 92 566.5 L 93 563.5 L 91 556.5 L 91 549 L 89 548.5 L 90 546.5 L 90 544.5 L 89 542.5 L 90 539.5 Q 91.3 532.7 89 529.5 Q 91.3 528.2 90 523.5 L 89.5 520 L 91 520.5 L 92 508.5 L 91 505 Q 93.7 506.1 93 503.5 L 91 503.5 Q 94.2 501.7 94 496.5 Q 91.5 495 95 493.5 L 94 491.5 L 96 489.5 L 97 483.5 L 93.5 481 L 92 481.5 Q 94.3 480.3 91.5 479 L 89.5 480 L 85.5 475 L 76.5 469 L 75 469.5 Q 77.7 467.7 73.5 466 Q 72 468.5 70.5 465 L 68 463.5 Q 70.8 461.8 66.5 460 L 65 460.5 L 66 459.5 L 61.5 455 L 60 455.5 Q 60.5 451.5 57.5 451 L 56 451.5 L 57 450.5 L 52.5 446 Q 51.3 448.2 50 445.5 Q 50.8 440.8 47.5 440 Q 44.9 440.8 46 437.5 L 42.5 433 L 41 433.5 Q 43.5 432 40 430.5 L 38.5 427 L 37 426.5 L 37 424.5 L 29.5 408 L 28 408.5 L 29 405 L 27 404.5 L 28 402.5 L 26 402.5 L 27 398 L 25 397.5 L 26 393.5 L 25 392.5 L 25 386 L 23 385.5 L 23 383.5 L 24 376.5 L 24 374.5 L 25 366.5 L 25 364.5 L 26 360.5 L 26 358.5 L 27 355.5 L 26.5 354 Q 28.8 354.8 28 352.5 L 27 350 Q 30 351.3 29 347.5 L 33 338.5 L 32 337.5 L 36 333.5 L 37 331.5 L 36 330.5 Q 40.3 328.2 38.5 326 Q 39.8 328.3 41 325.5 L 44 321.5 Q 41.8 320.3 44.5 319 L 46 318.5 L 45.5 317 L 46.5 318 L 51 313.5 L 50.5 312 Q 51.7 314.3 53 311.5 Q 52.2 308.9 55.5 310 L 56.5 307 L 58.5 307 Q 61.1 307.7 60 305 L 62.5 305 L 68 302 L 68.5 300 L 70.5 300 L 75 299 L 75.5 297 L 77 297.5 L 77.5 296 L 79.5 297 L 87.5 293 L 91.5 293 Q 93.8 293.8 93 291.5 L 94.5 292 L 96.5 291 L 98.5 291 L 100.5 290 L 105 291 Q 103.9 288.3 106.5 289 L 107.5 290 L 115.5 290 L 116.5 289 L 128.5 288 Q 129.7 290.2 134.5 289 Q 136 286.5 137.5 290 Q 143 291.5 144.5 289 L 146.5 289 L 149 289 L 149.5 291 L 153.5 291 L 157 290.5 L 157.5 292 L 159.5 292 L 161.5 291 Q 162.9 293.6 167.5 293 Q 169 290.5 170.5 294 L 172.5 293 L 176.5 295 L 180 294.5 Q 179.3 296.8 181.5 296 L 185 295.5 L 184.5 297 L 189.5 298 Q 191 295.5 192.5 299 L 197.5 300 Q 199 297.5 200.5 301 L 204.5 302 L 206 301.5 Q 205.3 303.8 207.5 303 L 209 302.5 Q 208.3 304.8 210.5 304 Q 212 301.5 213.5 305 Q 216.1 305.8 215 302.5 L 212 301.5 L 212.5 300 L 209 299 L 204.5 293 L 203 293.5 Q 205.8 291.8 201.5 290 Q 195.4 288.6 193 283.5 L 194 282.5 L 189.5 278 L 188 278.5 L 189 277.5 L 184.5 273 L 183 272.5 Q 185.3 271.3 182.5 270 L 181 270.5 L 182 269.5 L 176 263.5 L 174.5 261 Q 172.3 261.8 173 259.5 L 171 259.5 L 171.5 258 Q 168.9 258.8 170 255.5 L 163.5 248 L 162 248.5 L 162 246.5 L 160.5 244 L 159 244.5 L 159 242.5 L 157.5 240 L 156 240.5 L 156 238.5 L 152.5 233 L 151 233.5 L 151 231.5 Q 151.7 228.9 149 230 L 149 227.5 L 146 225.5 L 147 224.5 L 144 221.5 L 142.5 218 L 141 217.5 Q 143.5 216 140 214.5 Q 140.8 212.3 138.5 213 L 138.5 211 L 137 210.5 Q 139.5 209 136 207.5 L 132.5 200 L 131 200.5 L 132 198.5 L 130 198.5 L 131 196.5 L 130 194 L 128 193.5 L 128 191.5 L 126 185 Q 123.3 186.1 124 183.5 L 124.5 182 Q 121.1 182.9 123 177.5 L 119 171.5 L 120 168 Q 117.3 169.1 118 166.5 L 119 164.5 L 117 161.5 L 117.5 160 L 116 159.5 L 117 155.5 L 115 151.5 L 116 149.5 L 114 145.5 Q 116.5 144 115 138.5 Q 112.3 136.8 114 130.5 L 115 125.5 L 114 118.5 L 116 116.5 L 115 115.5 L 117 111.5 L 118 108.5 Q 115.5 107 119 105.5 L 120 101.5 L 119.5 100 Q 121.8 100.8 121 98.5 L 123 94.5 L 122 92.5 L 125 91 L 128 84.5 Q 125.8 83.3 128.5 82 L 131 80.5 Q 129.9 77.2 132.5 78 L 135 74.5 L 134.5 73 Q 136.3 75.7 138 71.5 Q 136.9 68.2 139.5 69 L 148 60.5 L 147.5 59 L 149 59.5 Q 148.3 57.3 150.5 58 L 156 53.5 Q 155.2 50.9 158.5 52 L 163 48.5 L 163.5 47 Q 164.8 49.3 166 46.5 L 166.5 45 Q 168 47.5 169.5 44 Q 171.8 44.8 171 42.5 L 173.5 42 Q 175.8 42.8 175 40.5 L 177.5 39 L 179.5 39 Q 181.8 39.8 181 37.5 L 182.5 38 Q 184.8 38.8 184 36.5 L 186.5 36 L 190.5 34 L 192 34.5 Q 191.3 32.3 193.5 33 L 195.5 34 L 195.5 32 L 199 33 L 199.5 31 L 203.5 32 L 210.5 30 L 219 30 L 219.5 28 Q 220.8 30.2 225.5 29 L 230.5 28 L 232.5 28 L 236.5 29 Q 238 26.5 239.5 30 L 248.5 30 L 257.5 32 L 259.5 31 L 263.5 33 L 265 32.5 Q 264.2 35.1 267.5 34 L 269.5 33 L 269.5 35 L 274.5 36 L 277 35 Q 275.8 38 279.5 37 L 281 36.5 L 280.5 38 L 284.5 39 L 286 38.5 Q 285.2 41.1 288.5 40 L 294 41.5 Q 293.2 44.1 296.5 43 L 303.5 46 L 305 45.5 L 304.5 47 L 324.5 57 L 326 56.5 Q 325.3 58.8 327.5 58 L 329 57.5 L 328.5 59 L 332.5 60 L 335.5 56 L 337 56.5 L 337.5 55 Q 339 57.5 340.5 54 L 343 52.5 L 343.5 51 Q 345 53.5 346.5 50 Q 348.8 50.8 348 48.5 Q 349.3 45.7 350.5 48 L 365 41 L 365.5 39 L 368 40 L 368.5 38 L 370 38.5 L 370.5 37 L 372.5 37 L 379.5 35 L 381.5 33 L 382.5 34 L 386.5 32 L 390.5 30 L 393 31 Q 391.9 28.3 394.5 29 L 397 30 L 397.5 28 L 401.5 29 L 410.5 26 L 415 27 L 415.5 25 Z M 319 115 Q 306 117 298 124 Q 287 132 282 146 L 268 154 Q 254 164 250 183 L 250 212 Q 252 222 258 230 L 275 244 L 287 249 L 297 251 Q 301 251 301 251 L 301 220 Q 293 221 289 217 L 281 210 L 280 207 Q 279 200 283 198 L 280 192 Q 279 185 282 183 Q 287 175 297 173 Q 305 171 309 174 L 308 173 Q 306 159 312 153 Q 315 147 323 145 L 331 148 L 339 145 L 347 148 Q 352 153 355 162 Q 356 170 354 174 L 357 173 L 367 173 L 377 178 Q 382 181 383 189 L 380 196 L 383 205 L 381 211 L 371 219 L 349 222 L 334 230 Q 321 240 317 259 L 317 399 L 317 399 L 295 399 L 293 401 L 293 423 L 309 423 L 314 426 L 317 432 L 316 441 Q 313 445 307 447 L 299 445 Q 294 442 293 435 L 278 435 L 278 477 L 342 477 L 344 476 L 347 472 L 347 424 L 348 423 L 359 423 L 359 399 L 347 399 L 347 264 L 349 258 L 358 251 L 367 251 L 377 249 Q 388 246 396 239 Q 409 229 413 210 L 413 200 L 412 199 L 413 194 L 413 185 L 411 176 L 402 161 Q 395 151 383 147 L 372 131 Q 363 118 345 115 L 334 115 L 333 116 L 319 115 Z M 217 304 L 215 306 L 218 306 L 217 304 Z " /><path fill="rgb(83,43,132)" stroke="rgb(83,43,132)" stroke-width="1" opacity="1" d="M 316.5 125 L 330.5 125 L 333 126 L 331.5 129 L 319.5 128 Q 306.6 130.6 300 139.5 Q 293.5 146.8 291 157 L 288 155.5 Q 291.8 142.3 300.5 134 Q 306.6 127.6 316.5 125 Z " /><path fill="rgb(83,43,132)" stroke="rgb(83,43,132)" stroke-width="1" opacity="1" d="M 391 195 Q 395.1 193.3 394 197.5 L 395 198.5 L 395 210.5 Q 391.6 221.7 382.5 227 L 372.5 232 L 350.5 235 Q 342.2 238.2 337 244.5 L 331 255.5 L 330 266 L 327 266 L 327 257.5 Q 330.1 246.6 336 240 L 344.5 234 L 351.5 231 L 366.5 230 L 373.5 228 L 386 219.5 L 392 208.5 L 392 200.5 L 391 195 Z " /><path fill="rgb(83,43,132)" stroke="rgb(83,43,132)" stroke-width="1" opacity="1" d="M 327 433 L 330 434.5 Q 329.7 448.2 321.5 454 Q 315.6 460.1 303.5 460 L 295.5 458 L 288 452.5 Q 286.8 448.8 290.5 450 Q 295.6 457.9 310.5 456 Q 317.9 453.9 322 448.5 L 326 441.5 L 327 433 Z " /></svg>